{"title":"Atlantis End Of A World Birth Of A Legend 2011 BRRip XviD Ac3 Fe","uid":6983703,"size":1364430848,"categoryP":"video","categoryS":"hd___movies","magnet":"?xt=urn:btih:1078a0ac8c6b27935314650ef4fbaa2ab227dc35&amp;dn=Atlantis+End+Of+A+World+Birth+Of+A+Legend+2011+BRRip+XviD+Ac3+Fe&amp;tr=udp%3A%2F%2Ftracker.openbittorrent.com%3A80&amp;tr=udp%3A%2F%2Fopen.demonii.com%3A1337&amp;tr=udp%3A%2F%2Ftracker.coppersurfer.tk%3A6969&amp;tr=udp%3A%2F%2Fexodus.desync.com%3A6969","seeders":0,"leechers":0,"uploader":"moviesp2p","files":1,"time":1327452035,"description":"[imgw=http://i.imgur.com/PfODJ.jpg]\n\nGenrerama\nLanguage:English\nIMDb:http://www.imdb.com/title/tt1744825/\nSource:720p.BluRay.x264.DTS-WiKi Thanks!\n\nFormat                                   : AVI\nFormat/Info                              : Audio Video Interleave\nFile size                                : 1.27 GiB\nDuration                                 : 1h 28mn\nOverall bit rate                         : 2 049 Kbps\n\nVideo\nID                                       : 0\nFormat                                   : MPEG-4 Visual\nFormat profile                           : Advanced Simple@L5\nFormat settings, BVOP                    : 1\nFormat settings, QPel                    : No\nFormat settings, GMC                     : No warppoints\nFormat settings, Matrix                  : Default (H.263)\nCodec ID                                 : XVID\nCodec ID/Hint                            : XviD\nDuration                                 : 1h 28mn\nBit rate                                 : 1 591 Kbps\nWidth                                    : 640 pixels\nHeight                                   : 360 pixels\nDisplay aspect ratio                     : 16:9\nFrame rate                               : 25.000 fps\nColor space                              : YUV\nChroma subsampling                       : 4:2:0\nBit depth                                : 8 bits\nScan type                                : Progressive\nCompression mode                         : Lossy\nBits/(Pixel*Frame)                       : 0.276\nStream size                              : 1 011 MiB (78%)\nWriting library                          : XviD 1.2.1 (UTC 2008-12-04)\n\nAudio\nID                                       : 1\nFormat                                   : AC-3\nFormat/Info                              : Audio Coding 3\nMode extension                           : CM (complete main)\nCodec ID                                 : 2000\nDuration                                 : 1h 28mn\nBit rate mode                            : Constant\nBit rate                                 : 448 Kbps\nChannel(s)                               : 6 channels\nChannel positions                        : Front: L C R, Side: L R, LFE\nSampling rate                            : 48.0 KHz\nBit depth                                : 16 bits\nCompression mode                         : Lossy\nStream size                              : 284 MiB (22%)\nAlignment                                : Aligned on interleaves\nInterleave, duration                     : 40 ms (1.00 video frame)\nInterleave, preload duration             : 512 ms\n\n   \nPlot:\n Tells the story of the greatest natural disaster of the ancient world, an event that experts believe inspired the legend of Atlantis.\n\n[imgw=http://i.imgur.com/awD5Z.png]\n[imgw=http://i.imgur.com/FTXXI.png]\n[imgw=http://i.imgur.com/Ogqrd.png]\n[imgw=http://i.imgur.com/p2LXE.png]\n","torrent":{"xt":"urn:btih:1078a0ac8c6b27935314650ef4fbaa2ab227dc35","amp;dn":"Atlantis+End+Of+A+World+Birth+Of+A+Legend+2011+BRRip+XviD+Ac3+Fe","amp;tr":["udp%3A%2F%2Ftracker.openbittorrent.com%3A80","udp%3A%2F%2Fopen.demonii.com%3A1337","udp%3A%2F%2Ftracker.coppersurfer.tk%3A6969","udp%3A%2F%2Fexodus.desync.com%3A6969"],"infoHash":"1078a0ac8c6b27935314650ef4fbaa2ab227dc35","infoHashBuffer":{"type":"Buffer","data":[16,120,160,172,140,107,39,147,83,20,101,14,244,251,170,42,178,39,220,53]},"announce":[],"urlList":[]}}